<svg width="179" height="32" viewBox="0 0 179 32" fill="none" xmlns="http://www.w3.org/2000/svg">
<path d="M37.4762 5.36287C36.8612 5.97304 36.1014 6.27684 35.1993 6.27684C34.2972 6.27684 33.5374 5.97304 32.9224 5.36287C32.3075 4.75269 32 4.01121 32 3.13842C32 2.25019 32.3075 1.50613 32.9224 0.90368C33.5374 0.301227 34.2972 0 35.1993 0C36.1014 0 36.8612 0.301227 37.4762 0.90368C38.0911 1.50613 38.3986 2.25276 38.3986 3.13842C38.3986 4.01121 38.0911 4.75269 37.4762 5.36287ZM32.2008 31.0212V8.73043H38.1928V31.0212H32.2008Z" fill="#043A08"/>
<path d="M42.1777 31.0217V8.73091H47.9665V12.7035H48.091C48.6932 11.2901 49.5725 10.2062 50.7287 9.44922C51.8849 8.69487 53.2978 8.31641 54.9673 8.31641C57.4018 8.31641 59.2848 9.05016 60.6112 10.5203C61.9377 11.9903 62.601 14.0346 62.601 16.6555V31.0243H56.6039V17.9222C56.6039 16.4521 56.2608 15.3219 55.5772 14.5315C54.8937 13.7411 53.8874 13.3471 52.5609 13.3471C51.2344 13.3471 50.1697 13.7977 49.3692 14.6988C48.5687 15.5999 48.1672 16.7791 48.1672 18.2337V31.0217H42.1777Z" fill="#043A08"/>
<path d="M66.0231 15.2806C66.0231 13.1591 66.8642 11.4573 68.5465 10.1752C70.2287 8.89302 72.4802 8.25195 75.2983 8.25195C78.0478 8.25195 80.2586 8.90332 81.9282 10.2061C83.5977 11.5088 84.4515 13.2415 84.4947 15.4042H78.9728C78.9042 14.5031 78.5383 13.795 77.875 13.2827C77.2118 12.7704 76.3249 12.5129 75.217 12.5129C74.1777 12.5129 73.3467 12.7317 72.7241 13.1668C72.1015 13.6045 71.7915 14.1812 71.7915 14.9021C71.7915 15.9834 72.7495 16.7532 74.6656 17.2089L78.8737 18.1229C81.0769 18.6224 82.66 19.3458 83.6257 20.2959C84.5913 21.2459 85.0716 22.5512 85.0716 24.2144C85.0716 26.4054 84.1695 28.1664 82.3627 29.4949C80.556 30.8234 78.1978 31.4902 75.2831 31.4902C72.3811 31.4902 70.0635 30.8388 68.3254 29.5361C66.5872 28.2333 65.6369 26.48 65.4717 24.2762H71.3214C71.4713 25.2185 71.8983 25.9471 72.6047 26.4594C73.3086 26.9718 74.2564 27.2292 75.4482 27.2292C76.5841 27.2292 77.4761 27.0181 78.1266 26.5959C78.7771 26.1737 79.1024 25.5944 79.1024 24.8606C79.1024 24.2916 78.8966 23.8385 78.4875 23.4987C78.0783 23.1588 77.3795 22.8705 76.3935 22.6362L72.3302 21.7222C68.1246 20.7567 66.0231 18.6095 66.0231 15.2806Z" fill="#043A08"/>
<path d="M89.6486 3.59375H95.6407V8.73005H99.704V13.3051H95.6407V23.9716C95.6407 25.6502 96.5021 26.487 98.2276 26.487C98.7892 26.487 99.2745 26.4535 99.6837 26.384V30.8535C98.9848 31.0208 98.0344 31.1032 96.8299 31.1032C94.243 31.1032 92.4007 30.6321 91.2979 29.6898C90.1975 28.7475 89.6461 27.1873 89.6461 25.0117V13.3051H86.5459V8.73005H89.6461V3.59375H89.6486Z" fill="#043A08"/>
<path d="M109.31 31.3757C107.188 31.3757 105.432 30.7449 104.034 29.4833C102.639 28.2218 101.94 26.5998 101.94 24.6174C101.94 22.5937 102.68 21.0052 104.156 19.8544C105.635 18.7035 107.747 18.0444 110.499 17.8797L116.041 17.5475V16.0723C116.041 15.0476 115.708 14.2418 115.045 13.6599C114.382 13.0781 113.482 12.7871 112.346 12.7871C111.251 12.7871 110.359 13.0369 109.668 13.5363C108.977 14.0358 108.555 14.7078 108.405 15.5522H102.926C103.036 13.3613 103.958 11.5977 105.696 10.2615C107.434 8.92268 109.739 8.25586 112.613 8.25586C115.431 8.25586 117.69 8.93555 119.385 10.2949C121.083 11.6543 121.932 13.4565 121.932 15.7016V31.0255H116.143V27.6142H116.021C115.419 28.7779 114.501 29.697 113.271 30.369C112.039 31.0384 110.718 31.3757 109.31 31.3757ZM111.279 26.986C112.606 26.986 113.731 26.5946 114.656 25.812C115.581 25.0293 116.041 24.0407 116.041 22.8486V21.2266L111.404 21.5176C110.28 21.5999 109.417 21.8857 108.807 22.3697C108.197 22.8563 107.894 23.4923 107.894 24.2827C107.894 25.1143 108.202 25.7734 108.817 26.2574C109.432 26.744 110.253 26.986 111.279 26.986Z" fill="#043A08"/>
<path d="M125.789 31.0217V8.73091H131.578V12.7035H131.702C132.305 11.2901 133.184 10.2062 134.34 9.44922C135.496 8.69487 136.909 8.31641 138.579 8.31641C141.013 8.31641 142.896 9.05016 144.223 10.5203C145.549 11.9903 146.212 14.0346 146.212 16.6555V31.0243H140.22V17.9222C140.22 16.4521 139.877 15.3219 139.194 14.5315C138.51 13.7411 137.504 13.3471 136.177 13.3471C134.851 13.3471 133.786 13.7977 132.986 14.6988C132.185 15.5999 131.784 16.7791 131.784 18.2337V31.0217H125.789Z" fill="#043A08"/>
<path d="M170.018 8.73047L162.466 31.0212H155.693L148.08 8.73047H154.504L159.081 25.6558H159.205L163.762 8.73047H170.018Z" fill="#043A08"/>
<path d="M177.468 5.36287C176.853 5.97304 176.094 6.27684 175.191 6.27684C174.289 6.27684 173.53 5.97304 172.915 5.36287C172.3 4.75269 171.992 4.01121 171.992 3.13842C171.992 2.25019 172.3 1.50613 172.915 0.90368C173.53 0.301227 174.289 0 175.191 0C176.094 0 176.853 0.301227 177.468 0.90368C178.083 1.50613 178.391 2.25276 178.391 3.13842C178.393 4.01121 178.083 4.75269 177.468 5.36287ZM172.193 31.0212V8.73043H178.185V31.0212H172.193Z" fill="#043A08"/>
<path d="M12.7846 6.02344C7.38213 6.02344 2.9834 10.48 2.9834 15.9536C2.9834 21.4298 7.38213 25.8838 12.7846 25.8838C14.0959 25.8838 15.3486 25.6212 16.4922 25.1475L16.083 23.2088C15.0793 23.68 13.9612 23.9426 12.7846 23.9426C8.43671 23.9426 4.89943 20.3587 4.89943 15.9536C4.89943 11.5485 8.43671 7.96468 12.7846 7.96468C17.1325 7.96468 20.6724 11.5485 20.6724 15.9536C20.6724 17.1946 20.3903 18.3712 19.8897 19.4216L21.5948 20.3072C22.2301 18.9916 22.5884 17.5138 22.5884 15.9536C22.5884 10.48 18.1896 6.02344 12.7846 6.02344Z" fill="#237804"/>
<path d="M12.7845 3C5.73538 3 0 8.81084 0 15.9528C0 23.0972 5.73538 28.9055 12.7845 28.9055C14.3067 28.9055 15.7704 28.6352 17.1248 28.1357L16.7182 26.2176C15.4959 26.6991 14.172 26.9643 12.7845 26.9643C6.7925 26.9643 1.91603 22.0262 1.91603 15.9528C1.91603 9.88187 6.7925 4.94124 12.7845 4.94124C18.7766 4.94124 23.6556 9.88187 23.6556 15.9528C23.6556 17.6906 23.2566 19.3358 22.5426 20.8007L24.2477 21.6864C25.0964 19.9562 25.5716 18.0098 25.5716 15.9528C25.5716 8.81084 19.8337 3 12.7845 3Z" fill="#52C41A"/>
<path d="M12.7845 10.0605C9.57754 10.0605 6.96777 12.7046 6.96777 15.9538C6.96777 19.2029 9.57754 21.8496 12.7845 21.8496C13.8187 21.8496 14.792 21.5741 15.6331 21.0927L15.2697 19.3754C15.1655 18.894 15.3485 18.3945 15.7322 18.0958C15.9507 17.9182 16.2252 17.8229 16.5073 17.8229C16.7055 17.8229 16.9011 17.8693 17.079 17.9594L18.0472 18.4614C18.403 17.7019 18.6012 16.8497 18.6012 15.9538C18.6012 12.7046 15.9939 10.0605 12.7845 10.0605ZM14.1796 16.8549C14.3371 17.0145 14.3371 17.2797 14.1796 17.4419C14.0169 17.6041 13.7577 17.6041 13.5976 17.4419L12.6295 16.461L11.6613 17.4419C11.5012 17.6041 11.242 17.6041 11.0794 17.4419C10.9218 17.2797 10.9218 17.0145 11.0794 16.8549L12.0501 15.874L11.0794 14.8905C10.9218 14.7308 10.9218 14.4682 11.0794 14.3035C11.242 14.1438 11.5012 14.1438 11.6613 14.3035L12.6295 15.2844L13.5976 14.3035C13.7577 14.1438 14.0169 14.1438 14.1796 14.3035C14.3371 14.4682 14.3371 14.7308 14.1796 14.8905L13.2088 15.874L14.1796 16.8549Z" fill="#043A08"/>
<path d="M26.403 24.112C26.3827 24.2716 26.2709 24.3978 26.1108 24.4338L21.4782 25.4405L21.153 25.5126L21.0208 25.855L19.2319 30.4403C19.1861 30.5588 19.0819 30.6437 18.9574 30.672C18.9269 30.6772 18.8888 30.6798 18.8507 30.6798C18.6855 30.6617 18.5432 30.5433 18.5102 30.3785L17.9638 27.7962L17.5496 25.8473L17.3184 24.7556L16.8991 22.7681L16.4264 20.5462L16.1393 19.1868C16.1088 19.0452 16.1622 18.8933 16.2816 18.8058C16.3934 18.7105 16.551 18.6976 16.6806 18.7646L17.6081 19.246L19.458 20.2089L21.1682 21.0997L22.1161 21.5915L23.8237 22.4797L26.2048 23.7181C26.3446 23.7979 26.4309 23.9498 26.403 24.112Z" fill="#043A08"/>
</svg>
