<svg width="100" height="105" viewBox="0 0 100 105" fill="none" xmlns="http://www.w3.org/2000/svg">
<path d="M48.1256 11.3809C27.7888 11.3809 11.2305 28.1571 11.2305 48.7614C11.2305 69.3755 27.7888 86.142 48.1256 86.142C53.0615 86.142 57.7774 85.1535 62.082 83.3702L60.5419 76.0724C56.7635 77.846 52.5545 78.8346 48.1256 78.8346C31.7586 78.8346 18.443 65.3438 18.443 48.7614C18.443 32.1791 31.7586 18.6883 48.1256 18.6883C64.4926 18.6883 77.8177 32.1791 77.8177 48.7614C77.8177 53.4328 76.7559 57.8619 74.8714 61.8161L81.2901 65.15C83.6815 60.1976 85.0303 54.6346 85.0303 48.7614C85.0303 28.1571 68.472 11.3809 48.1256 11.3809Z" fill="#237804"/>
<path d="M48.1253 0C21.5899 0 0 21.874 0 48.7586C0 75.6528 21.5899 97.5171 48.1253 97.5171C53.8552 97.5171 59.3651 96.4995 64.4636 94.6193L62.9331 87.3991C58.332 89.2114 53.3482 90.2096 48.1253 90.2096C25.5693 90.2096 7.21258 71.6211 7.21258 48.7586C7.21258 25.9057 25.5693 7.30748 48.1253 7.30748C70.6814 7.30748 89.0476 25.9057 89.0476 48.7586C89.0476 55.3004 87.5458 61.4933 84.8578 67.0079L91.2765 70.3418C94.4714 63.829 96.2602 56.5022 96.2602 48.7586C96.2602 21.874 74.6607 0 48.1253 0Z" fill="#52C41A"/>
<path d="M48.125 26.5781C36.053 26.5781 26.229 36.5314 26.229 48.7622C26.229 60.9931 36.053 70.9561 48.125 70.9561C52.0183 70.9561 55.682 69.9191 58.8482 68.1067L57.4803 61.6424C57.0881 59.8301 57.7769 57.9499 59.2213 56.8257C60.044 56.157 61.0771 55.7984 62.1389 55.7984C62.885 55.7984 63.6215 55.9728 64.2912 56.312L67.9357 58.2019C69.2749 55.3429 70.021 52.1349 70.021 48.7622C70.021 36.5314 60.2066 26.5781 48.125 26.5781ZM53.3766 52.1543C53.9697 52.7552 53.9697 53.7534 53.3766 54.364C52.7644 54.9746 51.7887 54.9746 51.1861 54.364L47.5415 50.6715L43.897 54.364C43.2943 54.9746 42.3186 54.9746 41.7064 54.364C41.1133 53.7534 41.1133 52.7552 41.7064 52.1543L45.3605 48.4618L41.7064 44.7596C41.1133 44.1587 41.1133 43.1702 41.7064 42.5499C42.3186 41.949 43.2943 41.949 43.897 42.5499L47.5415 46.2424L51.1861 42.5499C51.7887 41.949 52.7644 41.949 53.3766 42.5499C53.9697 43.1702 53.9697 44.1587 53.3766 44.7596L49.7225 48.4618L53.3766 52.1543Z" fill="#043A08"/>
<path d="M99.388 79.4728C99.3115 80.0737 98.8906 80.5486 98.288 80.6843L80.8496 84.4737L79.6252 84.7451L79.1278 86.0341L72.3935 103.295C72.2213 103.741 71.8291 104.06 71.3604 104.167C71.2456 104.186 71.1021 104.196 70.9586 104.196C70.3368 104.128 69.8011 103.683 69.6768 103.062L67.6202 93.3416L66.0609 86.005L65.1904 81.8958L63.6121 74.4138L61.8329 66.0499L60.7519 60.9328C60.6371 60.3997 60.838 59.8279 61.2876 59.4984C61.7085 59.1398 62.3016 59.0914 62.7894 59.3433L66.2809 61.1557L73.2448 64.7803L79.6826 68.1336L83.2506 69.9847L89.6788 73.3284L98.6419 77.99C99.168 78.2905 99.4933 78.8623 99.388 79.4728Z" fill="#043A08"/>
</svg>
