<svg width="49" height="51" viewBox="0 0 49 51" fill="none" xmlns="http://www.w3.org/2000/svg">
<path d="M4.4556 25.5901H25.0119C24.1772 27.3863 21.0515 32.9165 12.5836 37.4903C12.5836 37.5291 3.09863 42.3219 0.199527 33.9726C0.274147 33.9726 -1.51672 27.9879 4.37821 25.5929L4.4556 25.5901Z" fill="url(#paint0_linear_1126_5451)"/>
<path d="M4.4556 25.5922H25.0119C24.1772 23.796 21.0515 18.2659 12.5836 13.6921C12.5836 13.6533 3.09863 8.86048 0.199527 17.2097C0.274147 17.2097 -1.51672 23.1945 4.37821 25.5895L4.4556 25.5922Z" fill="url(#paint1_linear_1126_5451)"/>
<path d="M34.3725 7.52313L25.338 25.8266C24.1082 24.2992 20.5651 19.1045 20.2197 9.56887C20.1865 9.55223 20.0925 -0.98412 28.7898 0.074782C28.7567 0.14131 34.8672 1.15863 34.4057 7.44829L34.3725 7.52313Z" fill="url(#paint2_linear_1126_5451)"/>
<path d="M34.3719 7.52323L25.3374 25.8267C27.3024 25.8655 33.5925 25.4941 41.3806 19.9473C41.4137 19.9639 49.8457 13.6078 43.6965 7.38741C43.6634 7.45393 39.1282 3.24882 34.4078 7.45393L34.3719 7.52323Z" fill="url(#paint3_linear_1126_5451)"/>
<path d="M38.396 41.7684L25.227 25.9375C24.3869 27.7338 22.1566 33.6797 24.0801 43.1322C24.0525 43.1571 26.4596 53.5327 34.7065 50.417C34.6595 50.3588 40.3886 47.9028 38.4457 41.8321L38.396 41.7684Z" fill="url(#paint4_linear_1126_5451)"/>
<path d="M38.396 41.7682L25.2271 25.9373C27.1395 25.4301 33.3716 24.2963 42.2983 27.886C42.326 27.8611 52.0735 32.0967 47.5383 39.6781C47.4913 39.6199 44.056 44.834 38.4457 41.8292L38.396 41.7682Z" fill="url(#paint5_linear_1126_5451)"/>
<defs>
<linearGradient id="paint0_linear_1126_5451" x1="15.8616" y1="35.612" x2="8.58896" y2="23.0531" gradientUnits="userSpaceOnUse">
<stop offset="0.0011606" stop-color="#A179FC"/>
<stop offset="0.2096" stop-color="#9F7DFC"/>
<stop offset="0.4197" stop-color="#9889FD"/>
<stop offset="0.6306" stop-color="#8C9DFD"/>
<stop offset="0.8409" stop-color="#7BB9FE"/>
<stop offset="1" stop-color="#6CD4FF"/>
</linearGradient>
<linearGradient id="paint1_linear_1126_5451" x1="12.5067" y1="25.5927" x2="12.5067" y2="12.2905" gradientUnits="userSpaceOnUse">
<stop offset="0.0011606" stop-color="#A179FC"/>
<stop offset="0.2096" stop-color="#9F7DFC"/>
<stop offset="0.4197" stop-color="#9889FD"/>
<stop offset="0.6306" stop-color="#8C9DFD"/>
<stop offset="0.8409" stop-color="#7BB9FE"/>
<stop offset="1" stop-color="#6CD4FF"/>
</linearGradient>
<linearGradient id="paint2_linear_1126_5451" x1="20.2153" y1="12.9152" x2="34.4303" y2="12.9152" gradientUnits="userSpaceOnUse">
<stop offset="0.0011606" stop-color="#FF600A"/>
<stop offset="1" stop-color="#FDB805"/>
</linearGradient>
<linearGradient id="paint3_linear_1126_5451" x1="25.3373" y1="15.7069" x2="45.9407" y2="15.7069" gradientUnits="userSpaceOnUse">
<stop offset="0.0011606" stop-color="#FF600A"/>
<stop offset="1" stop-color="#FDB805"/>
</linearGradient>
<linearGradient id="paint4_linear_1126_5451" x1="23.3198" y1="38.4683" x2="38.8474" y2="38.4683" gradientUnits="userSpaceOnUse">
<stop offset="0.0011606" stop-color="#269E3C"/>
<stop offset="0.1223" stop-color="#2FA23B"/>
<stop offset="0.3235" stop-color="#49AD37"/>
<stop offset="0.5798" stop-color="#72BE31"/>
<stop offset="0.8783" stop-color="#ABD529"/>
<stop offset="1" stop-color="#C4E025"/>
</linearGradient>
<linearGradient id="paint5_linear_1126_5451" x1="25.2275" y1="34.0597" x2="48.7426" y2="34.0597" gradientUnits="userSpaceOnUse">
<stop offset="0.0011606" stop-color="#269E3C"/>
<stop offset="0.1223" stop-color="#2FA23B"/>
<stop offset="0.3235" stop-color="#49AD37"/>
<stop offset="0.5798" stop-color="#72BE31"/>
<stop offset="0.8783" stop-color="#ABD529"/>
<stop offset="1" stop-color="#C4E025"/>
</linearGradient>
</defs>
</svg>
